<svg xmlns="http://www.w3.org/2000/svg" viewBox="0 0 1148.13 146.12"><defs><style>.a{fill:#fff;}</style></defs><title>logo</title><path class="a" d="M94.81,852.21v83.5H32.19v41.75H11.31V852.21ZM73.94,914.84V873.09H32.19v41.75Z" transform="translate(-11.31 -831.34)"/><path class="a" d="M115.69,935.71V873.09h20.87V852.21h62.63v83.5Zm62.62-61.79H136.56V914h41.75Z" transform="translate(-11.31 -831.34)"/><path class="a" d="M303.56,852.21v83.5H240.94v41.75H220.06V852.21Zm-20.87,62.63V873.09H240.94v41.75Z" transform="translate(-11.31 -831.34)"/><path class="a" d="M324.44,852.21h83.5V894H387.06v21h20.88v20.71h-83.5ZM366.19,914V893.13h20.87V873.92H345.31V914Z" transform="translate(-11.31 -831.34)"/><path class="a" d="M491.44,852.21v20.71H449.69v62.79H428.81v-83.5Z" transform="translate(-11.31 -831.34)"/><path class="a" d="M574.94,852.21v20.71H554.06v62.79H533.19V872.92H512.31V852.21h20.88V831.34h20.87v20.87Z" transform="translate(-11.31 -831.34)"/><path class="a" d="M658.44,852.21v20.71H616.69v62.79H595.81v-83.5Z" transform="translate(-11.31 -831.34)"/><path class="a" d="M679.31,935.71V873.09h20.88V852.21h62.62v83.5Zm62.63-61.79H700.19V914h41.75Z" transform="translate(-11.31 -831.34)"/><path class="a" d="M867.19,935.71h-83.5v-83.5h83.5v20.71H804.56V915h62.63Z" transform="translate(-11.31 -831.34)"/><path class="a" d="M950.69,935.71V893.63H908.94v42.08H888.06V831.34h20.88v41.58h41.75V852.21h20.87v20.71H950.69v20.71h20.87v42.08Z" transform="translate(-11.31 -831.34)"/><path class="a" d="M992.44,852.21h83.5V894h-20.88v21h20.88v20.71h-83.5ZM1034.19,914V893.13h20.87V873.92h-41.75V914Z" transform="translate(-11.31 -831.34)"/><path class="a" d="M1159.44,852.21v20.71h-41.75v62.79h-20.88v-83.5Z" transform="translate(-11.31 -831.34)"/></svg>