<?xml version="1.0" encoding="iso-8859-1"?>
<!-- Generator: Adobe Illustrator 19.0.0, SVG Export Plug-In . SVG Version: 6.00 Build 0)  -->
<svg version="1.1" id="Layer_1" xmlns="http://www.w3.org/2000/svg" xmlns:xlink="http://www.w3.org/1999/xlink" x="0px" y="0px"
	 viewBox="0 0 511.999 511.999" style="enable-background:new 0 0 511.999 511.999;" xml:space="preserve">
<g>
	<g>
		<circle cx="421.903" cy="141.076" r="32.645"/>
	</g>
</g>
<g>
	<g>
		<circle cx="331.016" cy="141.076" r="23.326"/>
	</g>
</g>
<g>
	<g>
		<path d="M478.168,59.202H33.831C15.176,59.202,0,74.378,0,93.034v128.693v197.239c0,18.655,15.176,33.831,33.831,33.831h444.337
			c18.655,0,33.831-15.176,33.831-33.831V221.727V93.034C512,74.378,496.823,59.202,478.168,59.202z M33.46,93.034
			c0-0.205,0.166-0.371,0.371-0.371h444.337c0.205,0,0.371,0.166,0.371,0.371v95.234H33.46V93.034z M79.779,419.338H33.831
			c-0.205-0.001-0.371-0.167-0.371-0.372V221.727h35.166v87.306c0,4.466,3.62,8.086,8.086,8.086h3.067V419.338z M185.921,419.338
			h-72.682V317.12h2.509c4.466,0,8.086-3.62,8.086-8.086v-87.306h51.212v87.306c0,4.466,3.62,8.086,8.086,8.086h2.788V419.338z
			 M292.341,419.338H219.38V317.12h2.788c4.466,0,8.086-3.62,8.086-8.086v-87.306h51.212v87.306c0,4.466,3.62,8.086,8.086,8.086
			h2.788V419.338z M398.762,419.338h-72.961V317.12h2.788c4.466,0,8.086-3.62,8.086-8.086v-87.306h51.212v87.306
			c0,4.466,3.62,8.086,8.086,8.086h2.788V419.338z M478.169,419.336H432.22V317.118h2.788c4.466,0,8.086-3.62,8.086-8.086v-87.306
			h35.445v197.239h0.001C478.54,419.17,478.374,419.336,478.169,419.336z"/>
	</g>
</g>
<g>
</g>
<g>
</g>
<g>
</g>
<g>
</g>
<g>
</g>
<g>
</g>
<g>
</g>
<g>
</g>
<g>
</g>
<g>
</g>
<g>
</g>
<g>
</g>
<g>
</g>
<g>
</g>
<g>
</g>
</svg>
