<?xml version="1.0" encoding="utf-8"?>
<!-- Generator: Adobe Illustrator 23.1.0, SVG Export Plug-In . SVG Version: 6.00 Build 0)  -->
<svg version="1.1" id="Layer_1" xmlns="http://www.w3.org/2000/svg" xmlns:xlink="http://www.w3.org/1999/xlink" x="0px" y="0px"
	 viewBox="0 0 48.4 48.4" style="enable-background:new 0 0 48.4 48.4;" xml:space="preserve">
<title>kick1</title>
<rect x="7.1" y="7.1" width="6.8" height="6.8"/>
<rect x="20.8" y="27.6" width="6.8" height="6.8"/>
<rect x="34.5" y="34.5" width="6.8" height="6.8"/>
<polygon points="13.9,41.3 13.9,48.2 34.5,48.2 34.5,41.3 "/>
<polygon points="13.9,0.2 13.9,7.1 34.5,7.1 34.5,0.2 "/>
<polygon points="48.2,13.9 41.3,13.9 41.3,13.9 41.3,7.1 34.5,7.1 34.5,20.8 41.3,20.8 41.3,20.8 41.3,34.5 48.2,34.5 "/>
<rect x="27.6" y="20.8" width="6.8" height="6.8"/>
<polygon points="0.3,13.9 0.3,34.5 7.1,34.5 7.1,13.9 "/>
<rect x="13.9" y="13.9" width="6.8" height="6.8"/>
<rect x="7.1" y="34.5" width="6.8" height="6.8"/>
</svg>
